<mxfile host="app.diagrams.net" modified="2020-10-08T00:02:45.489Z" agent="5.0 (Windows)" etag="pAmIvUpVsakH2gil8yO3" version="13.7.8" type="github">
  <diagram id="Wyc_e_W2kNafW7ocO5Kg" name="Page-1">
    <mxGraphModel dx="1460" dy="747" grid="1" gridSize="10" guides="1" tooltips="1" connect="1" arrows="1" fold="1" page="1" pageScale="1" pageWidth="827" pageHeight="1169" math="0" shadow="0">
      <root>
        <mxCell id="0" />
        <mxCell id="1" parent="0" />
        <mxCell id="cKClWDkK0Cr-ZczOW485-26" value="" style="rounded=0;whiteSpace=wrap;html=1;" vertex="1" parent="1">
          <mxGeometry x="110" y="100" width="590" height="630" as="geometry" />
        </mxCell>
        <mxCell id="cKClWDkK0Cr-ZczOW485-1" value="Sistema/balcao" style="shape=umlActor;verticalLabelPosition=bottom;verticalAlign=top;html=1;outlineConnect=0;" vertex="1" parent="1">
          <mxGeometry x="50" y="200" width="30" height="60" as="geometry" />
        </mxCell>
        <mxCell id="cKClWDkK0Cr-ZczOW485-2" value="&lt;div&gt;Cliente&lt;/div&gt;" style="shape=umlActor;verticalLabelPosition=bottom;verticalAlign=top;html=1;outlineConnect=0;" vertex="1" parent="1">
          <mxGeometry x="50" y="570" width="30" height="60" as="geometry" />
        </mxCell>
        <mxCell id="cKClWDkK0Cr-ZczOW485-3" value="CPF" style="ellipse;whiteSpace=wrap;html=1;" vertex="1" parent="1">
          <mxGeometry x="140" y="500" width="120" height="80" as="geometry" />
        </mxCell>
        <mxCell id="cKClWDkK0Cr-ZczOW485-4" value="Retirar senha" style="ellipse;whiteSpace=wrap;html=1;" vertex="1" parent="1">
          <mxGeometry x="140" y="160" width="120" height="80" as="geometry" />
        </mxCell>
        <mxCell id="cKClWDkK0Cr-ZczOW485-5" value="Caixa" style="shape=umlActor;verticalLabelPosition=bottom;verticalAlign=top;html=1;outlineConnect=0;" vertex="1" parent="1">
          <mxGeometry x="760" y="340" width="30" height="60" as="geometry" />
        </mxCell>
        <mxCell id="cKClWDkK0Cr-ZczOW485-6" value="Registrar duração e solução" style="ellipse;whiteSpace=wrap;html=1;" vertex="1" parent="1">
          <mxGeometry x="550" y="310" width="120" height="80" as="geometry" />
        </mxCell>
        <mxCell id="cKClWDkK0Cr-ZczOW485-7" value="imprimir comprovante" style="ellipse;whiteSpace=wrap;html=1;" vertex="1" parent="1">
          <mxGeometry x="560" y="420" width="120" height="80" as="geometry" />
        </mxCell>
        <mxCell id="cKClWDkK0Cr-ZczOW485-8" value="" style="endArrow=none;dashed=1;html=1;entryX=0;entryY=0.5;entryDx=0;entryDy=0;exitX=1;exitY=0.5;exitDx=0;exitDy=0;" edge="1" parent="1" source="cKClWDkK0Cr-ZczOW485-11" target="cKClWDkK0Cr-ZczOW485-7">
          <mxGeometry width="50" height="50" relative="1" as="geometry">
            <mxPoint x="390" y="510" as="sourcePoint" />
            <mxPoint x="440" y="460" as="targetPoint" />
            <Array as="points" />
          </mxGeometry>
        </mxCell>
        <mxCell id="cKClWDkK0Cr-ZczOW485-9" value="Solicitar o comprovante" style="ellipse;whiteSpace=wrap;html=1;" vertex="1" parent="1">
          <mxGeometry x="140" y="600" width="120" height="80" as="geometry" />
        </mxCell>
        <mxCell id="cKClWDkK0Cr-ZczOW485-12" value="" style="endArrow=none;html=1;exitX=1;exitY=0.3333333333333333;exitDx=0;exitDy=0;exitPerimeter=0;" edge="1" parent="1" source="cKClWDkK0Cr-ZczOW485-1" target="cKClWDkK0Cr-ZczOW485-4">
          <mxGeometry width="50" height="50" relative="1" as="geometry">
            <mxPoint x="80" y="240" as="sourcePoint" />
            <mxPoint x="130" y="190" as="targetPoint" />
          </mxGeometry>
        </mxCell>
        <mxCell id="cKClWDkK0Cr-ZczOW485-13" value="" style="endArrow=none;html=1;exitX=1;exitY=0.3333333333333333;exitDx=0;exitDy=0;exitPerimeter=0;" edge="1" parent="1" source="cKClWDkK0Cr-ZczOW485-2" target="cKClWDkK0Cr-ZczOW485-3">
          <mxGeometry width="50" height="50" relative="1" as="geometry">
            <mxPoint x="90" y="570" as="sourcePoint" />
            <mxPoint x="140" y="520" as="targetPoint" />
            <Array as="points" />
          </mxGeometry>
        </mxCell>
        <mxCell id="cKClWDkK0Cr-ZczOW485-14" value="" style="endArrow=none;html=1;entryX=0;entryY=0.3333333333333333;entryDx=0;entryDy=0;entryPerimeter=0;exitX=1;exitY=0.5;exitDx=0;exitDy=0;" edge="1" parent="1" source="cKClWDkK0Cr-ZczOW485-6" target="cKClWDkK0Cr-ZczOW485-5">
          <mxGeometry width="50" height="50" relative="1" as="geometry">
            <mxPoint x="460" y="490" as="sourcePoint" />
            <mxPoint x="510" y="440" as="targetPoint" />
          </mxGeometry>
        </mxCell>
        <mxCell id="cKClWDkK0Cr-ZczOW485-18" value="Sugestão de assuntos" style="ellipse;whiteSpace=wrap;html=1;" vertex="1" parent="1">
          <mxGeometry x="140" y="260" width="120" height="80" as="geometry" />
        </mxCell>
        <mxCell id="cKClWDkK0Cr-ZczOW485-19" value="" style="endArrow=none;html=1;entryX=1;entryY=0.3333333333333333;entryDx=0;entryDy=0;entryPerimeter=0;exitX=0;exitY=0.5;exitDx=0;exitDy=0;" edge="1" parent="1" source="cKClWDkK0Cr-ZczOW485-18" target="cKClWDkK0Cr-ZczOW485-1">
          <mxGeometry width="50" height="50" relative="1" as="geometry">
            <mxPoint x="390" y="510" as="sourcePoint" />
            <mxPoint x="440" y="460" as="targetPoint" />
          </mxGeometry>
        </mxCell>
        <mxCell id="cKClWDkK0Cr-ZczOW485-20" value="" style="endArrow=none;html=1;exitX=1;exitY=0;exitDx=0;exitDy=0;entryX=0;entryY=1;entryDx=0;entryDy=0;entryPerimeter=0;" edge="1" parent="1" source="cKClWDkK0Cr-ZczOW485-7" target="cKClWDkK0Cr-ZczOW485-5">
          <mxGeometry width="50" height="50" relative="1" as="geometry">
            <mxPoint x="470" y="680" as="sourcePoint" />
            <mxPoint x="520" y="630" as="targetPoint" />
          </mxGeometry>
        </mxCell>
        <mxCell id="cKClWDkK0Cr-ZczOW485-21" value="" style="endArrow=none;html=1;exitX=1;exitY=0.3333333333333333;exitDx=0;exitDy=0;exitPerimeter=0;" edge="1" parent="1" source="cKClWDkK0Cr-ZczOW485-2" target="cKClWDkK0Cr-ZczOW485-9">
          <mxGeometry width="50" height="50" relative="1" as="geometry">
            <mxPoint x="390" y="620" as="sourcePoint" />
            <mxPoint x="137.57359312880726" y="631.7157287525381" as="targetPoint" />
          </mxGeometry>
        </mxCell>
        <mxCell id="cKClWDkK0Cr-ZczOW485-11" value="&amp;lt;extends&amp;gt;" style="text;html=1;align=center;verticalAlign=middle;resizable=0;points=[];autosize=1;" vertex="1" parent="1">
          <mxGeometry x="380" y="520" width="70" height="20" as="geometry" />
        </mxCell>
        <mxCell id="cKClWDkK0Cr-ZczOW485-22" value="" style="endArrow=none;dashed=1;html=1;entryX=0;entryY=0.5;entryDx=0;entryDy=0;exitX=1;exitY=0.5;exitDx=0;exitDy=0;" edge="1" parent="1" source="cKClWDkK0Cr-ZczOW485-9" target="cKClWDkK0Cr-ZczOW485-11">
          <mxGeometry width="50" height="50" relative="1" as="geometry">
            <mxPoint x="320" y="680" as="sourcePoint" />
            <mxPoint x="500" y="380" as="targetPoint" />
          </mxGeometry>
        </mxCell>
        <mxCell id="cKClWDkK0Cr-ZczOW485-23" value="&lt;div&gt;Departamento Administrativo&lt;/div&gt;" style="shape=umlActor;verticalLabelPosition=bottom;verticalAlign=top;html=1;outlineConnect=0;" vertex="1" parent="1">
          <mxGeometry x="770" y="170" width="30" height="60" as="geometry" />
        </mxCell>
        <mxCell id="cKClWDkK0Cr-ZczOW485-24" value="Obter Relatório Semanal" style="ellipse;whiteSpace=wrap;html=1;" vertex="1" parent="1">
          <mxGeometry x="500" y="140" width="120" height="80" as="geometry" />
        </mxCell>
        <mxCell id="cKClWDkK0Cr-ZczOW485-25" value="" style="endArrow=none;html=1;entryX=1;entryY=0.5;entryDx=0;entryDy=0;exitX=0;exitY=0.3333333333333333;exitDx=0;exitDy=0;exitPerimeter=0;" edge="1" parent="1" source="cKClWDkK0Cr-ZczOW485-23" target="cKClWDkK0Cr-ZczOW485-24">
          <mxGeometry width="50" height="50" relative="1" as="geometry">
            <mxPoint x="390" y="510" as="sourcePoint" />
            <mxPoint x="440" y="460" as="targetPoint" />
          </mxGeometry>
        </mxCell>
        <mxCell id="cKClWDkK0Cr-ZczOW485-29" value="&lt;span style=&quot;left: 377.083px ; top: 128.7px ; font-size: 20px ; font-family: sans-serif ; transform: scalex(1.00067)&quot;&gt;Cenário&lt;/span&gt;&lt;span style=&quot;left: 452.883px ; top: 128.7px ; font-size: 20px ; font-family: sans-serif ; transform: scalex(0.999345)&quot;&gt; - empresa V&lt;/span&gt;&lt;span style=&quot;left: 549.517px ; top: 128.7px ; font-size: 20px ; font-family: sans-serif&quot;&gt;e&lt;/span&gt;&lt;span style=&quot;left: 560.717px ; top: 128.7px ; font-size: 20px ; font-family: sans-serif ; transform: scalex(1.00051)&quot;&gt;nde &lt;/span&gt;&lt;span style=&quot;left: 599.717px ; top: 128.7px ; font-size: 20px ; font-family: sans-serif ; transform: scalex(1.01525)&quot;&gt;Tudo&lt;/span&gt;" style="text;html=1;align=center;verticalAlign=middle;resizable=0;points=[];autosize=1;" vertex="1" parent="1">
          <mxGeometry x="255" y="80" width="300" height="20" as="geometry" />
        </mxCell>
      </root>
    </mxGraphModel>
  </diagram>
</mxfile>
